<?xml version="1.0" encoding="UTF-8"?>
<!DOCTYPE svg PUBLIC "-//W3C//DTD SVG 1.1//EN" "http://www.w3.org/Graphics/SVG/1.1/DTD/svg11.dtd">
<svg xmlns="http://www.w3.org/2000/svg" version="1.1" width="512px" height="512px" style="shape-rendering:geometricPrecision; text-rendering:geometricPrecision; image-rendering:optimizeQuality; fill-rule:evenodd; clip-rule:evenodd" xmlns:xlink="http://www.w3.org/1999/xlink">
<g><path style="opacity:0.977" fill="#7a4ff3" d="M 246.5,-0.5 C 252.5,-0.5 258.5,-0.5 264.5,-0.5C 264.5,-0.166667 264.5,0.166667 264.5,0.5C 272.964,9.465 281.631,18.2983 290.5,27C 289.944,27.3826 289.611,27.8826 289.5,28.5C 280.526,24.6816 271.526,20.8483 262.5,17C 254.685,15.5764 247.351,16.743 240.5,20.5C 237.167,15.1667 232.833,10.8333 227.5,7.5C 233.682,4.44045 240.015,1.77378 246.5,-0.5 Z"/></g>
<g><path style="opacity:0.96" fill="#7355f2" d="M 227.5,7.5 C 232.833,10.8333 237.167,15.1667 240.5,20.5C 230.568,24.699 220.568,28.699 210.5,32.5C 207.201,27.5341 203.201,23.2008 198.5,19.5C 208.048,15.2265 217.715,11.2265 227.5,7.5 Z"/></g>
<g><path style="opacity:0.967" fill="#804af5" d="M 264.5,0.5 C 268.693,0.952575 272.693,2.11924 276.5,4C 300.04,13.9425 323.373,24.1092 346.5,34.5C 355.631,44.1317 364.964,53.6317 374.5,63C 374.272,63.3988 373.938,63.5654 373.5,63.5C 345.35,52.2267 317.35,40.5601 289.5,28.5C 289.611,27.8826 289.944,27.3826 290.5,27C 281.631,18.2983 272.964,9.465 264.5,0.5 Z"/></g>
<g><path style="opacity:0.967" fill="#6d5af0" d="M 198.5,19.5 C 203.201,23.2008 207.201,27.5341 210.5,32.5C 201.467,37.0117 192.134,41.0117 182.5,44.5C 181.448,44.6495 180.448,44.4828 179.5,44C 176.167,40.6667 172.833,37.3333 169.5,34C 168.552,33.5172 167.552,33.3505 166.5,33.5C 177.012,28.6559 187.679,23.9893 198.5,19.5 Z"/></g>
<g><path style="opacity:0.967" fill="#6660ee" d="M 166.5,33.5 C 167.552,33.3505 168.552,33.5172 169.5,34C 172.833,37.3333 176.167,40.6667 179.5,44C 180.448,44.4828 181.448,44.6495 182.5,44.5C 169.455,50.6847 156.122,56.3514 142.5,61.5C 143.6,60.4415 144.934,59.6082 146.5,59C 142.631,54.963 138.631,51.1296 134.5,47.5C 144.864,42.322 155.531,37.6554 166.5,33.5 Z"/></g>
<g><path style="opacity:0.98" fill="#7454f2" d="M 288.5,105.5 C 284.193,101.528 279.859,97.5282 275.5,93.5C 275.775,85.4467 275.275,77.4467 274,69.5C 270.557,60.9421 264.224,56.2755 255,55.5C 250.289,56.4544 246.122,58.4544 242.5,61.5C 239.232,56.8927 235.565,52.5594 231.5,48.5C 240.934,40.2236 251.934,37.3903 264.5,40C 278,44.1667 286.833,53 291,66.5C 291.667,78.1667 291.667,89.8333 291,101.5C 290.392,103.066 289.558,104.4 288.5,105.5 Z"/></g>
<g><path style="opacity:0.97" fill="#6065ec" d="M 134.5,47.5 C 138.631,51.1296 142.631,54.963 146.5,59C 144.934,59.6082 143.6,60.4415 142.5,61.5C 135.241,65.593 127.574,68.9263 119.5,71.5C 114.167,68.1667 109.833,63.8333 106.5,58.5C 115.687,54.4381 125.02,50.7714 134.5,47.5 Z"/></g>
<g><path style="opacity:0.987" fill="#6d5af0" d="M 231.5,48.5 C 235.565,52.5594 239.232,56.8927 242.5,61.5C 240.163,64.171 238.329,67.171 237,70.5C 235.762,78.7865 235.262,87.1198 235.5,95.5C 249.209,96.1481 262.542,95.4814 275.5,93.5C 279.859,97.5282 284.193,101.528 288.5,105.5C 286.929,108.231 284.595,110.065 281.5,111C 270.505,111.5 259.505,111.667 248.5,111.5C 239.167,101.5 229.5,91.8333 219.5,82.5C 217.397,68.8653 221.397,57.532 231.5,48.5 Z"/></g>
<g><path style="opacity:0.973" fill="#8744f7" d="M 346.5,34.5 C 371.155,44.2676 395.488,54.601 419.5,65.5C 428.631,75.1317 437.964,84.6317 447.5,94C 446.906,94.4643 446.239,94.631 445.5,94.5C 421.199,84.6783 397.199,74.3449 373.5,63.5C 373.938,63.5654 374.272,63.3988 374.5,63C 364.964,53.6317 355.631,44.1317 346.5,34.5 Z"/></g>
<g><path style="opacity:0.959" fill="#5a6bea" d="M 106.5,58.5 C 109.833,63.8333 114.167,68.1667 119.5,71.5C 109.475,76.4023 99.1417,80.7357 88.5,84.5C 84.7731,79.7703 80.4397,75.7703 75.5,72.5C 85.6505,67.5944 95.9838,62.9278 106.5,58.5 Z"/></g>
<g><path style="opacity:0.981" fill="#675fee" d="M 175.5,63.5 C 183.507,63.3336 191.507,63.5003 199.5,64C 201.333,64.5 202.5,65.6667 203,67.5C 203.667,70.1667 203.667,72.8333 203,75.5C 202.5,77.3333 201.333,78.5 199.5,79C 191.5,79.6667 183.5,79.6667 175.5,79C 172.484,77.4714 171.151,74.9714 171.5,71.5C 171.282,67.9342 172.616,65.2675 175.5,63.5 Z"/></g>
<g><path style="opacity:0.99" fill="#7a4ef4" d="M 311.5,63.5 C 319.507,63.3336 327.507,63.5003 335.5,64C 337.333,64.5 338.5,65.6667 339,67.5C 339.667,70.1667 339.667,72.8333 339,75.5C 338.5,77.3333 337.333,78.5 335.5,79C 327.5,79.6667 319.5,79.6667 311.5,79C 308.484,77.4714 307.151,74.9714 307.5,71.5C 307.282,67.9342 308.616,65.2675 311.5,63.5 Z"/></g>
<g><path style="opacity:0.982" fill="#8b40f8" d="M 419.5,65.5 C 442.526,74.5129 465.192,84.3463 487.5,95C 490.787,98.2933 493.287,102.127 495,106.5C 495.5,113.492 495.666,120.492 495.5,127.5C 503.108,127.299 508.442,130.633 511.5,137.5C 511.5,144.167 511.5,150.833 511.5,157.5C 500.833,147.167 490.167,136.833 479.5,126.5C 479.771,121.087 479.271,115.754 478,110.5C 477.167,109.667 476.333,108.833 475.5,108C 465.356,103.574 455.356,99.0739 445.5,94.5C 446.239,94.631 446.906,94.4643 447.5,94C 437.964,84.6317 428.631,75.1317 419.5,65.5 Z"/></g>
<g><path style="opacity:0.956" fill="#5370e8" d="M 75.5,72.5 C 80.4397,75.7703 84.7731,79.7703 88.5,84.5C 76.573,90.5932 64.2397,95.9266 51.5,100.5C 47.6905,95.3465 43.0238,91.3465 37.5,88.5C 49.8684,82.6547 62.535,77.3214 75.5,72.5 Z"/></g>
<g><path style="opacity:0.98" fill="#695eee" d="M 219.5,82.5 C 229.5,91.8333 239.167,101.5 248.5,111.5C 225.167,115.5 215.5,105.833 219.5,82.5 Z"/></g>
<g><path style="opacity:0.967" fill="#4d77e6" d="M 37.5,88.5 C 43.0238,91.3465 47.6905,95.3465 51.5,100.5C 46.3118,103.075 40.9785,105.575 35.5,108C 33.0507,110.275 31.7173,113.108 31.5,116.5C 26.8333,112.167 22.1667,107.833 17.5,103.5C 21.8213,95.5289 28.488,90.5289 37.5,88.5 Z"/></g>
<g><path style="opacity:0.997" fill="#6165ec" d="M 151.5,95.5 C 167.503,95.3334 183.503,95.5001 199.5,96C 201.333,96.5 202.5,97.6667 203,99.5C 203.667,102.167 203.667,104.833 203,107.5C 202.5,109.333 201.333,110.5 199.5,111C 183.5,111.667 167.5,111.667 151.5,111C 148.484,109.471 147.151,106.971 147.5,103.5C 147.282,99.9342 148.616,97.2675 151.5,95.5 Z"/></g>
<g><path style="opacity:1" fill="#7751f3" d="M 311.5,95.5 C 327.503,95.3334 343.503,95.5001 359.5,96C 361.333,96.5 362.5,97.6667 363,99.5C 363.667,102.167 363.667,104.833 363,107.5C 362.5,109.333 361.333,110.5 359.5,111C 343.5,111.667 327.5,111.667 311.5,111C 308.484,109.471 307.151,106.971 307.5,103.5C 307.282,99.9342 308.616,97.2675 311.5,95.5 Z"/></g>
<g><path style="opacity:0.996" fill="#487be5" d="M 17.5,103.5 C 22.1667,107.833 26.8333,112.167 31.5,116.5C 31.5,120.167 31.5,123.833 31.5,127.5C 35.1667,127.5 38.8333,127.5 42.5,127.5C 47.5,132.833 52.5,138.167 57.5,143.5C 43.5,143.5 29.5,143.5 15.5,143.5C 11.8333,139.5 8.16667,135.5 4.5,131.5C 7.36946,128.242 11.0361,126.909 15.5,127.5C 15.3337,120.492 15.5004,113.492 16,106.5C 16.5133,105.473 17.0133,104.473 17.5,103.5 Z"/></g>
<g><path style="opacity:0.993" fill="#8644f7" d="M 479.5,126.5 C 490.167,136.833 500.833,147.167 511.5,157.5C 511.5,160.167 511.5,162.833 511.5,165.5C 508.129,172.527 502.463,176.027 494.5,176C 493.603,178.087 492.936,180.254 492.5,182.5C 485.923,174.583 478.923,166.917 471.5,159.5C 479.5,159.5 487.5,159.5 495.5,159.5C 495.5,154.167 495.5,148.833 495.5,143.5C 481.833,143.5 468.167,143.5 454.5,143.5C 449.5,138.167 444.5,132.833 439.5,127.5C 453.01,127.829 466.344,127.496 479.5,126.5 Z"/></g>
<g><path style="opacity:1" fill="#4d76e6" d="M 42.5,127.5 C 54.8333,127.5 67.1667,127.5 79.5,127.5C 84.5,132.833 89.5,138.167 94.5,143.5C 82.1667,143.5 69.8333,143.5 57.5,143.5C 52.5,138.167 47.5,132.833 42.5,127.5 Z"/></g>
<g><path style="opacity:1" fill="#5272e8" d="M 79.5,127.5 C 90.1667,127.5 100.833,127.5 111.5,127.5C 116.5,132.833 121.5,138.167 126.5,143.5C 115.833,143.5 105.167,143.5 94.5,143.5C 89.5,138.167 84.5,132.833 79.5,127.5 Z"/></g>
<g><path style="opacity:1" fill="#596cea" d="M 111.5,127.5 C 132.5,127.5 153.5,127.5 174.5,127.5C 179.5,132.833 184.5,138.167 189.5,143.5C 168.5,143.5 147.5,143.5 126.5,143.5C 121.5,138.167 116.5,132.833 111.5,127.5 Z"/></g>
<g><path style="opacity:1" fill="#6065ec" d="M 174.5,127.5 C 190.833,127.5 207.167,127.5 223.5,127.5C 228.5,132.833 233.5,138.167 238.5,143.5C 222.167,143.5 205.833,143.5 189.5,143.5C 184.5,138.167 179.5,132.833 174.5,127.5 Z"/></g>
<g><path style="opacity:1" fill="#6760ee" d="M 223.5,127.5 C 236.833,127.5 250.167,127.5 263.5,127.5C 268.5,132.833 273.5,138.167 278.5,143.5C 265.167,143.5 251.833,143.5 238.5,143.5C 233.5,138.167 228.5,132.833 223.5,127.5 Z"/></g>
<g><path style="opacity:1" fill="#6d5af0" d="M 263.5,127.5 C 279.167,127.5 294.833,127.5 310.5,127.5C 315.5,132.833 320.5,138.167 325.5,143.5C 309.833,143.5 294.167,143.5 278.5,143.5C 273.5,138.167 268.5,132.833 263.5,127.5 Z"/></g>
<g><path style="opacity:1" fill="#7355f1" d="M 310.5,127.5 C 323.5,127.5 336.5,127.5 349.5,127.5C 354.5,132.833 359.5,138.167 364.5,143.5C 351.5,143.5 338.5,143.5 325.5,143.5C 320.5,138.167 315.5,132.833 310.5,127.5 Z"/></g>
<g><path style="opacity:1" fill="#794ff3" d="M 349.5,127.5 C 363.5,127.5 377.5,127.5 391.5,127.5C 396.5,132.833 401.5,138.167 406.5,143.5C 392.5,143.5 378.5,143.5 364.5,143.5C 359.5,138.167 354.5,132.833 349.5,127.5 Z"/></g>
<g><path style="opacity:1" fill="#8049f5" d="M 391.5,127.5 C 407.5,127.5 423.5,127.5 439.5,127.5C 444.5,132.833 449.5,138.167 454.5,143.5C 438.5,143.5 422.5,143.5 406.5,143.5C 401.5,138.167 396.5,132.833 391.5,127.5 Z"/></g>
<g><path style="opacity:0.99" fill="#4181e3" d="M 4.5,131.5 C 8.16667,135.5 11.8333,139.5 15.5,143.5C 15.5,148.833 15.5,154.167 15.5,159.5C 21.1667,159.5 26.8333,159.5 32.5,159.5C 37.5,164.833 42.5,170.167 47.5,175.5C 43.1667,175.5 38.8333,175.5 34.5,175.5C 34.8502,181.059 36.8502,185.892 40.5,190C 48.4295,191.363 56.4295,191.863 64.5,191.5C 69.5,196.833 74.5,202.167 79.5,207.5C 71.5,207.5 63.5,207.5 55.5,207.5C 55.5,212.5 55.5,217.5 55.5,222.5C 50.1667,217.5 44.8333,212.5 39.5,207.5C 30.4934,205.993 24.3267,200.993 21,192.5C 19.6667,187.167 18.3333,181.833 17,176.5C 8.94301,176.229 3.10968,172.562 -0.5,165.5C -0.5,156.167 -0.5,146.833 -0.5,137.5C 0.689986,135.131 2.35665,133.131 4.5,131.5 Z"/></g>
<g><path style="opacity:1" fill="#477be5" d="M 32.5,159.5 C 46.5,159.5 60.5,159.5 74.5,159.5C 79.5,164.833 84.5,170.167 89.5,175.5C 75.5,175.5 61.5,175.5 47.5,175.5C 42.5,170.167 37.5,164.833 32.5,159.5 Z"/></g>
<g><path style="opacity:0.983" fill="#4d76e6" d="M 74.5,159.5 C 86.8333,159.5 99.1667,159.5 111.5,159.5C 120.22,169.222 129.553,178.222 139.5,186.5C 137.716,197.617 131.383,204.617 120.5,207.5C 116.228,201.89 111.562,196.557 106.5,191.5C 118.411,192.926 124.411,187.592 124.5,175.5C 112.833,175.5 101.167,175.5 89.5,175.5C 84.5,170.167 79.5,164.833 74.5,159.5 Z"/></g>
<g><path style="opacity:0.996" fill="#5272e8" d="M 111.5,159.5 C 122.167,159.5 132.833,159.5 143.5,159.5C 148.5,164.833 153.5,170.167 158.5,175.5C 153.156,175.334 147.823,175.501 142.5,176C 141.269,179.423 140.269,182.923 139.5,186.5C 129.553,178.222 120.22,169.222 111.5,159.5 Z"/></g>
<g><path style="opacity:1" fill="#596cea" d="M 143.5,159.5 C 164.5,159.5 185.5,159.5 206.5,159.5C 211.5,164.833 216.5,170.167 221.5,175.5C 200.5,175.5 179.5,175.5 158.5,175.5C 153.5,170.167 148.5,164.833 143.5,159.5 Z"/></g>
<g><path style="opacity:1" fill="#6065ec" d="M 206.5,159.5 C 222.833,159.5 239.167,159.5 255.5,159.5C 260.5,164.833 265.5,170.167 270.5,175.5C 254.167,175.5 237.833,175.5 221.5,175.5C 216.5,170.167 211.5,164.833 206.5,159.5 Z"/></g>
<g><path style="opacity:1" fill="#6760ee" d="M 255.5,159.5 C 268.833,159.5 282.167,159.5 295.5,159.5C 300.5,164.833 305.5,170.167 310.5,175.5C 297.167,175.5 283.833,175.5 270.5,175.5C 265.5,170.167 260.5,164.833 255.5,159.5 Z"/></g>
<g><path style="opacity:1" fill="#6d5af0" d="M 295.5,159.5 C 310.167,159.5 324.833,159.5 339.5,159.5C 344.5,164.833 349.5,170.167 354.5,175.5C 339.833,175.5 325.167,175.5 310.5,175.5C 305.5,170.167 300.5,164.833 295.5,159.5 Z"/></g>
<g><path style="opacity:0.996" fill="#7355f1" d="M 339.5,159.5 C 353.5,159.5 367.5,159.5 381.5,159.5C 386.5,164.833 391.5,170.167 396.5,175.5C 393.167,175.5 389.833,175.5 386.5,175.5C 386.85,181.059 388.85,185.892 392.5,190C 399.426,191.339 406.426,191.839 413.5,191.5C 418.5,196.833 423.5,202.167 428.5,207.5C 421.5,207.5 414.5,207.5 407.5,207.5C 407.5,212.833 407.5,218.167 407.5,223.5C 420.167,223.5 432.833,223.5 445.5,223.5C 451.167,229.833 457.167,235.833 463.5,241.5C 463.5,255.5 463.5,269.5 463.5,283.5C 458.167,278.5 452.833,273.5 447.5,268.5C 447.5,258.833 447.5,249.167 447.5,239.5C 438.833,239.5 430.167,239.5 421.5,239.5C 411.833,229.167 401.833,219.167 391.5,209.5C 391.631,208.624 391.298,207.957 390.5,207.5C 382.035,205.532 376.201,200.532 373,192.5C 371.727,186.906 370.227,181.406 368.5,176C 363.845,175.501 359.179,175.334 354.5,175.5C 349.5,170.167 344.5,164.833 339.5,159.5 Z"/></g>
<g><path style="opacity:1" fill="#794ff3" d="M 381.5,159.5 C 395.5,159.5 409.5,159.5 423.5,159.5C 428.5,164.833 433.5,170.167 438.5,175.5C 424.5,175.5 410.5,175.5 396.5,175.5C 391.5,170.167 386.5,164.833 381.5,159.5 Z"/></g>
<g><path style="opacity:0.987" fill="#804af5" d="M 423.5,159.5 C 439.5,159.5 455.5,159.5 471.5,159.5C 478.923,166.917 485.923,174.583 492.5,182.5C 491.341,195.856 484.341,204.189 471.5,207.5C 465.833,202.5 460.5,197.167 455.5,191.5C 468.916,194.405 475.916,189.072 476.5,175.5C 463.833,175.5 451.167,175.5 438.5,175.5C 433.5,170.167 428.5,164.833 423.5,159.5 Z"/></g>
<g><path style="opacity:0.997" fill="#477be5" d="M 64.5,191.5 C 78.5,191.5 92.5,191.5 106.5,191.5C 111.562,196.557 116.228,201.89 120.5,207.5C 119.671,214.655 119.171,221.989 119,229.5C 117.358,233.3 114.858,236.3 111.5,238.5C 106.167,233.833 101.167,228.833 96.5,223.5C 98.8333,223.5 101.167,223.5 103.5,223.5C 103.5,218.167 103.5,212.833 103.5,207.5C 95.5,207.5 87.5,207.5 79.5,207.5C 74.5,202.167 69.5,196.833 64.5,191.5 Z"/></g>
<g><path style="opacity:0.997" fill="#794ff3" d="M 413.5,191.5 C 427.5,191.5 441.5,191.5 455.5,191.5C 460.5,197.167 465.833,202.5 471.5,207.5C 471.666,214.841 471.5,222.174 471,229.5C 469.75,232.916 467.583,235.583 464.5,237.5C 463.571,238.689 463.238,240.022 463.5,241.5C 457.167,235.833 451.167,229.833 445.5,223.5C 448.833,223.5 452.167,223.5 455.5,223.5C 455.5,218.167 455.5,212.833 455.5,207.5C 446.5,207.5 437.5,207.5 428.5,207.5C 423.5,202.167 418.5,196.833 413.5,191.5 Z"/></g>
<g><path style="opacity:0.971" fill="#6066ec" d="M 246.5,199.5 C 262.739,198.155 278.405,200.155 293.5,205.5C 318.5,231.167 343.833,256.5 369.5,281.5C 374.845,296.595 376.845,312.261 375.5,328.5C 369.5,323.167 363.833,317.5 358.5,311.5C 356.535,290.248 349.035,271.248 336,254.5C 335.282,253.549 334.449,253.383 333.5,254C 330.317,257.015 327.317,260.182 324.5,263.5C 331.342,272.184 336.342,281.851 339.5,292.5C 320.167,273.833 301.167,254.833 282.5,235.5C 293.149,238.658 302.816,243.658 311.5,250.5C 315.725,247.464 318.892,243.797 321,239.5C 304.166,226.172 284.999,218.505 263.5,216.5C 257.5,211.167 251.833,205.5 246.5,199.5 Z"/></g>
<g><path style="opacity:0.994" fill="#3b86e1" d="M 39.5,207.5 C 44.8333,212.5 50.1667,217.5 55.5,222.5C 55.5,223.167 55.8333,223.5 56.5,223.5C 61.5,228.833 66.5,234.167 71.5,239.5C 68.8333,239.5 66.1667,239.5 63.5,239.5C 63.5,252.5 63.5,265.5 63.5,278.5C 58.1667,273.5 52.8333,268.5 47.5,263.5C 47.8314,254.808 47.498,246.141 46.5,237.5C 43.4167,235.583 41.25,232.916 40,229.5C 39.5003,222.174 39.3337,214.841 39.5,207.5 Z"/></g>
<g><path style="opacity:0.95" fill="#6462ee" d="M 293.5,205.5 C 331.167,218.5 356.5,243.833 369.5,281.5C 343.833,256.5 318.5,231.167 293.5,205.5 Z"/></g>
<g><path style="opacity:0.994" fill="#6e5af0" d="M 391.5,209.5 C 401.833,219.167 411.833,229.167 421.5,239.5C 419.5,239.5 417.5,239.5 415.5,239.5C 415.5,252.167 415.5,264.833 415.5,277.5C 410.167,272.5 404.833,267.5 399.5,262.5C 399.831,254.14 399.498,245.807 398.5,237.5C 395.417,235.583 393.25,232.916 392,229.5C 391.5,222.842 391.334,216.175 391.5,209.5 Z"/></g>
<g><path style="opacity:0.97" fill="#5371e8" d="M 212.5,207.5 C 216.5,211.833 220.5,216.167 224.5,220.5C 211.845,224.995 200.178,231.328 189.5,239.5C 186.167,235.167 182.833,230.833 179.5,226.5C 189.098,217.864 200.098,211.53 212.5,207.5 Z"/></g>
<g><path style="opacity:1" fill="#4181e3" d="M 56.5,223.5 C 69.8333,223.5 83.1667,223.5 96.5,223.5C 101.167,228.833 106.167,233.833 111.5,238.5C 111.5,251.833 111.5,265.167 111.5,278.5C 106.167,273.5 100.833,268.5 95.5,263.5C 95.5,255.5 95.5,247.5 95.5,239.5C 87.5,239.5 79.5,239.5 71.5,239.5C 66.5,234.167 61.5,228.833 56.5,223.5 Z"/></g>
<g><path style="opacity:0.977" fill="#4d77e6" d="M 179.5,226.5 C 182.833,230.833 186.167,235.167 189.5,239.5C 191.893,243.402 194.893,246.902 198.5,250C 199.577,250.47 200.577,250.303 201.5,249.5C 205.565,253.559 209.232,257.893 212.5,262.5C 205.769,268.229 199.769,274.562 194.5,281.5C 191.5,276.5 187.5,272.5 182.5,269.5C 184.254,267.325 185.421,264.992 186,262.5C 182.985,259.317 179.818,256.317 176.5,253.5C 175.055,255.394 173.388,257.06 171.5,258.5C 168.604,254.095 165.104,250.095 161,246.5C 160.617,247.056 160.117,247.389 159.5,247.5C 164.768,239.231 171.435,232.231 179.5,226.5 Z"/></g>
<g><path style="opacity:0.97" fill="#5272e8" d="M 221.5,237.5 C 225.897,241.892 229.897,246.558 233.5,251.5C 225.791,253.89 218.791,257.557 212.5,262.5C 209.232,257.893 205.565,253.559 201.5,249.5C 207.468,244.509 214.134,240.509 221.5,237.5 Z"/></g>
<g><path style="opacity:0.963" fill="#487be5" d="M 171.5,258.5 C 166.034,267.099 161.367,276.099 157.5,285.5C 153.103,281.108 149.103,276.442 145.5,271.5C 147.179,265.807 149.679,260.474 153,255.5C 154.946,252.58 157.113,249.913 159.5,247.5C 160.117,247.389 160.617,247.056 161,246.5C 165.104,250.095 168.604,254.095 171.5,258.5 Z"/></g>
<g><path style="opacity:1" fill="#348cdf" d="M 47.5,263.5 C 52.8333,268.5 58.1667,273.5 63.5,278.5C 63.5,294.5 63.5,310.5 63.5,326.5C 58.1667,321.5 52.8333,316.5 47.5,311.5C 47.5,295.5 47.5,279.5 47.5,263.5 Z"/></g>
<g><path style="opacity:1" fill="#675fee" d="M 399.5,262.5 C 404.833,267.5 410.167,272.5 415.5,277.5C 415.5,291.5 415.5,305.5 415.5,319.5C 410.167,314.5 404.833,309.5 399.5,304.5C 399.5,290.5 399.5,276.5 399.5,262.5 Z"/></g>
<g><path style="opacity:1" fill="#3b86e1" d="M 95.5,263.5 C 100.833,268.5 106.167,273.5 111.5,278.5C 111.5,294.5 111.5,310.5 111.5,326.5C 106.167,321.5 100.833,316.5 95.5,311.5C 95.5,295.5 95.5,279.5 95.5,263.5 Z"/></g>
<g><path style="opacity:0.983" fill="#5371e8" d="M 245.5,295.5 C 242.744,290.408 238.744,286.742 233.5,284.5C 237.224,280.301 241.891,277.635 247.5,276.5C 246.07,264.47 250.904,260.804 262,265.5C 263.337,269.026 263.837,272.692 263.5,276.5C 275.886,279.313 282.053,286.98 282,299.5C 279.045,303.277 275.212,304.443 270.5,303C 267.383,300.458 264.717,297.458 262.5,294C 256.447,290.433 250.781,290.933 245.5,295.5 Z"/></g>
<g><path style="opacity:1" fill="#6d5af0" d="M 447.5,268.5 C 452.833,273.5 458.167,278.5 463.5,283.5C 463.5,298.167 463.5,312.833 463.5,327.5C 458.443,322.438 453.11,317.772 447.5,313.5C 447.5,298.5 447.5,283.5 447.5,268.5 Z"/></g>
<g><path style="opacity:0.968" fill="#467ce5" d="M 182.5,269.5 C 187.5,272.5 191.5,276.5 194.5,281.5C 189.791,290.29 186.458,299.624 184.5,309.5C 183.883,309.611 183.383,309.944 183,310.5C 178.906,305.898 174.406,301.898 169.5,298.5C 171.949,287.939 176.282,278.273 182.5,269.5 Z"/></g>
<g><path style="opacity:0.971" fill="#5a6bea" d="M 246.5,199.5 C 251.833,205.5 257.5,211.167 263.5,216.5C 263.5,221.5 263.5,226.5 263.5,231.5C 270.068,231.871 276.401,233.204 282.5,235.5C 301.167,254.833 320.167,273.833 339.5,292.5C 341.796,298.599 343.129,304.932 343.5,311.5C 348.5,311.5 353.5,311.5 358.5,311.5C 363.833,317.5 369.5,323.167 375.5,328.5C 374.979,340.461 372.312,351.794 367.5,362.5C 363.167,358.5 358.833,354.5 354.5,350.5C 356.348,342.928 357.681,335.261 358.5,327.5C 353.5,327.5 348.5,327.5 343.5,327.5C 343.552,329.903 343.219,332.236 342.5,334.5C 341.778,334.918 341.278,335.584 341,336.5C 336.667,332.167 332.333,327.833 328,323.5C 327.809,325.708 327.309,327.708 326.5,329.5C 328.898,296.101 315.565,271.267 286.5,255C 269.093,247.352 251.427,246.186 233.5,251.5C 229.897,246.558 225.897,241.892 221.5,237.5C 229.868,234.241 238.535,232.241 247.5,231.5C 247.5,226.5 247.5,221.5 247.5,216.5C 239.697,217.091 232.03,218.424 224.5,220.5C 220.5,216.167 216.5,211.833 212.5,207.5C 223.206,202.688 234.539,200.021 246.5,199.5 Z"/></g>
<g><path style="opacity:0.971" fill="#4d76e7" d="M 233.5,284.5 C 238.744,286.742 242.744,290.408 245.5,295.5C 242.421,303.291 244.755,308.457 252.5,311C 274.918,311.083 285.085,322.249 283,344.5C 281.14,350.51 277.64,355.177 272.5,358.5C 268.833,354.5 265.167,350.5 261.5,346.5C 266.627,342.592 267.794,337.592 265,331.5C 263.2,329.683 261.034,328.516 258.5,328C 236.082,327.917 225.915,316.751 228,294.5C 229.07,290.689 230.903,287.356 233.5,284.5 Z"/></g>
<g><path style="opacity:0.975" fill="#3b86e1" d="M 136.5,303.5 C 144.167,311.5 151.833,319.5 159.5,327.5C 157.167,327.5 154.833,327.5 152.5,327.5C 154.227,347.936 161.227,366.269 173.5,382.5C 173.631,383.239 173.464,383.906 173,384.5C 161.604,373.272 150.437,361.938 139.5,350.5C 137.781,345.758 136.614,340.758 136,335.5C 135.175,324.659 135.341,313.992 136.5,303.5 Z"/></g>
<g><path style="opacity:1" fill="#2d92dd" d="M 47.5,311.5 C 52.8333,316.5 58.1667,321.5 63.5,326.5C 63.5,342.5 63.5,358.5 63.5,374.5C 58.1667,369.5 52.8333,364.5 47.5,359.5C 47.5,343.5 47.5,327.5 47.5,311.5 Z"/></g>
<g><path style="opacity:1" fill="#348cdf" d="M 95.5,311.5 C 100.833,316.5 106.167,321.5 111.5,326.5C 111.5,342.5 111.5,358.5 111.5,374.5C 106.167,369.5 100.833,364.5 95.5,359.5C 95.5,343.5 95.5,327.5 95.5,311.5 Z"/></g>
<g><path style="opacity:1" fill="#6065ec" d="M 399.5,304.5 C 404.833,309.5 410.167,314.5 415.5,319.5C 415.5,335.833 415.5,352.167 415.5,368.5C 410.167,363.5 404.833,358.5 399.5,353.5C 399.5,337.167 399.5,320.833 399.5,304.5 Z"/></g>
<g><path style="opacity:1" fill="#6660ee" d="M 447.5,313.5 C 453.11,317.772 458.443,322.438 463.5,327.5C 463.5,343.5 463.5,359.5 463.5,375.5C 458.167,370.5 452.833,365.5 447.5,360.5C 447.5,344.833 447.5,329.167 447.5,313.5 Z"/></g>
<g><path style="opacity:0.975" fill="#477be5" d="M 261.5,346.5 C 265.167,350.5 268.833,354.5 272.5,358.5C 269.912,360.625 266.912,361.958 263.5,362.5C 264.93,374.53 260.096,378.196 249,373.5C 247.663,369.974 247.163,366.308 247.5,362.5C 235.114,359.687 228.947,352.02 229,339.5C 231.955,335.723 235.788,334.557 240.5,336C 243.617,338.542 246.283,341.542 248.5,345C 252.725,347.017 257.058,347.517 261.5,346.5 Z"/></g>
<g><path style="opacity:0.973" fill="#3c85e1" d="M 168.5,335.5 C 191.473,358.806 214.473,382.14 237.5,405.5C 223.359,403.096 210.692,397.429 199.5,388.5C 195.812,391.521 192.479,394.854 189.5,398.5C 188.883,398.611 188.383,398.944 188,399.5C 184.167,395.667 180.333,391.833 176.5,388C 177.252,387.329 177.586,386.496 177.5,385.5C 180.478,382.187 183.478,378.853 186.5,375.5C 177.253,363.669 171.253,350.335 168.5,335.5 Z"/></g>
<g><path style="opacity:0.966" fill="#5371e8" d="M 342.5,334.5 C 340.339,349.144 334.672,362.144 325.5,373.5C 321.167,369.833 317.167,365.833 313.5,361.5C 320.03,351.767 324.363,341.1 326.5,329.5C 327.309,327.708 327.809,325.708 328,323.5C 332.333,327.833 336.667,332.167 341,336.5C 341.278,335.584 341.778,334.918 342.5,334.5 Z"/></g>
<g><path style="opacity:0.974" fill="#378ae0" d="M 139.5,350.5 C 150.437,361.938 161.604,373.272 173,384.5C 173.464,383.906 173.631,383.239 173.5,382.5C 174.236,384.229 175.57,385.229 177.5,385.5C 177.586,386.496 177.252,387.329 176.5,388C 180.333,391.833 184.167,395.667 188,399.5C 188.383,398.944 188.883,398.611 189.5,398.5C 189.833,399.167 190.167,399.833 190.5,400.5C 190.062,400.435 189.728,400.601 189.5,401C 201.035,412.368 212.369,423.868 223.5,435.5C 184.067,423.903 156.901,398.903 142,360.5C 140.648,357.28 139.814,353.947 139.5,350.5 Z"/></g>
<g><path style="opacity:0.992" fill="#2e92dd" d="M 95.5,359.5 C 100.833,364.5 106.167,369.5 111.5,374.5C 111.168,383.525 111.502,392.525 112.5,401.5C 118.891,406.232 121.225,412.565 119.5,420.5C 111.5,412.833 103.5,405.167 95.5,397.5C 95.5,384.833 95.5,372.167 95.5,359.5 Z"/></g>
<g><path style="opacity:0.993" fill="#6066ec" d="M 447.5,360.5 C 452.833,365.5 458.167,370.5 463.5,375.5C 463.169,384.192 463.502,392.859 464.5,401.5C 467.583,403.417 469.75,406.084 471,409.5C 471.499,414.489 471.666,419.489 471.5,424.5C 462.833,416.5 454.5,408.167 446.5,399.5C 447.495,386.677 447.829,373.677 447.5,360.5 Z"/></g>
<g><path style="opacity:0.97" fill="#5470e8" d="M 354.5,350.5 C 358.833,354.5 363.167,358.5 367.5,362.5C 364.518,372.452 359.852,381.452 353.5,389.5C 349.441,385.435 345.107,381.768 340.5,378.5C 346.254,369.659 350.921,360.326 354.5,350.5 Z"/></g>
<g><path style="opacity:0.967" fill="#4181e3" d="M 145.5,271.5 C 149.103,276.442 153.103,281.108 157.5,285.5C 154.882,293.976 153.215,302.642 152.5,311.5C 157.5,311.5 162.5,311.5 167.5,311.5C 167.844,307.106 168.51,302.772 169.5,298.5C 174.406,301.898 178.906,305.898 183,310.5C 183.383,309.944 183.883,309.611 184.5,309.5C 182.244,341.824 194.911,366.324 222.5,383C 239.512,390.792 257.179,392.626 275.5,388.5C 280.167,392.5 284.5,396.833 288.5,401.5C 280.498,404.768 272.165,406.768 263.5,407.5C 263.5,412.5 263.5,417.5 263.5,422.5C 272.324,421.602 280.99,419.935 289.5,417.5C 293.892,421.897 298.558,425.897 303.5,429.5C 291.911,435.149 279.578,438.483 266.5,439.5C 266.918,438.778 267.584,438.278 268.5,438C 261.632,430.964 254.632,424.131 247.5,417.5C 247.5,414.167 247.5,410.833 247.5,407.5C 243.922,407.451 240.589,406.785 237.5,405.5C 214.473,382.14 191.473,358.806 168.5,335.5C 167.908,332.873 167.575,330.206 167.5,327.5C 164.833,327.5 162.167,327.5 159.5,327.5C 151.833,319.5 144.167,311.5 136.5,303.5C 137.342,292.118 140.342,281.452 145.5,271.5 Z"/></g>
<g><path style="opacity:0.975" fill="#4c77e6" d="M 313.5,361.5 C 317.167,365.833 321.167,369.833 325.5,373.5C 324.697,374.423 324.53,375.423 325,376.5C 328.015,379.683 331.182,382.683 334.5,385.5C 336.523,383.147 338.523,380.814 340.5,378.5C 345.107,381.768 349.441,385.435 353.5,389.5C 346.54,399.46 338.207,408.127 328.5,415.5C 325.232,410.893 321.565,406.559 317.5,402.5C 318.8,401.173 320.133,399.84 321.5,398.5C 318.5,394.833 315.167,391.5 311.5,388.5C 304.569,394.09 296.902,398.423 288.5,401.5C 284.5,396.833 280.167,392.5 275.5,388.5C 290.905,383.44 303.571,374.44 313.5,361.5 Z"/></g>
<g><path style="opacity:0.969" fill="#3b86e1" d="M 190.5,400.5 C 207.358,413.085 226.358,420.418 247.5,422.5C 247.5,420.833 247.5,419.167 247.5,417.5C 254.632,424.131 261.632,430.964 268.5,438C 267.584,438.278 266.918,438.778 266.5,439.5C 251.897,440.39 237.564,439.057 223.5,435.5C 212.369,423.868 201.035,412.368 189.5,401C 189.728,400.601 190.062,400.435 190.5,400.5 Z"/></g>
<g><path style="opacity:0.959" fill="#487be5" d="M 317.5,402.5 C 321.565,406.559 325.232,410.893 328.5,415.5C 320.904,421.465 312.571,426.132 303.5,429.5C 298.558,425.897 293.892,421.897 289.5,417.5C 299.371,413.563 308.705,408.563 317.5,402.5 Z"/></g>
<g><path style="opacity:0.999" fill="#229cda" d="M 44.5,403.5 C 48.1667,407.5 51.8333,411.5 55.5,415.5C 55.5,420.833 55.5,426.167 55.5,431.5C 66.5,431.5 77.5,431.5 88.5,431.5C 93.5,436.833 98.5,442.167 103.5,447.5C 89.5,447.5 75.5,447.5 61.5,447.5C 54.5,439.833 47.1667,432.5 39.5,425.5C 39.334,420.156 39.5006,414.823 40,409.5C 40.7918,406.894 42.2918,404.894 44.5,403.5 Z"/></g>
<g><path style="opacity:0.999" fill="#5470e8" d="M 399.5,395.5 C 406.5,401.833 413.167,408.5 419.5,415.5C 415.5,415.5 411.5,415.5 407.5,415.5C 407.5,420.833 407.5,426.167 407.5,431.5C 417.167,431.5 426.833,431.5 436.5,431.5C 441.5,436.833 446.5,442.167 451.5,447.5C 437.833,447.5 424.167,447.5 410.5,447.5C 404.5,440.833 398.167,434.5 391.5,428.5C 391.334,422.158 391.5,415.825 392,409.5C 393.25,406.084 395.417,403.417 398.5,401.5C 399.466,399.604 399.799,397.604 399.5,395.5 Z"/></g>
<g><path style="opacity:0.992" fill="#2897dc" d="M 47.5,359.5 C 52.8333,364.5 58.1667,369.5 63.5,374.5C 63.5,382.833 63.5,391.167 63.5,399.5C 74.5524,400.143 85.2191,399.476 95.5,397.5C 103.5,405.167 111.5,412.833 119.5,420.5C 119.177,424.226 119.511,427.893 120.5,431.5C 128.965,433.468 134.799,438.468 138,446.5C 139.333,451.833 140.667,457.167 142,462.5C 148.744,463.479 155.578,463.812 162.5,463.5C 167.5,468.833 172.5,474.167 177.5,479.5C 163.5,479.5 149.5,479.5 135.5,479.5C 130.5,474.167 125.5,468.833 120.5,463.5C 121.833,463.5 123.167,463.5 124.5,463.5C 123.916,449.928 116.916,444.595 103.5,447.5C 98.5,442.167 93.5,436.833 88.5,431.5C 93.5,431.5 98.5,431.5 103.5,431.5C 103.5,426.167 103.5,420.833 103.5,415.5C 87.5,415.5 71.5,415.5 55.5,415.5C 51.8333,411.5 48.1667,407.5 44.5,403.5C 44.811,402.522 45.4777,401.855 46.5,401.5C 47.4992,387.516 47.8326,373.516 47.5,359.5 Z"/></g>
<g><path style="opacity:0.994" fill="#5a6bea" d="M 399.5,353.5 C 404.833,358.5 410.167,363.5 415.5,368.5C 415.5,378.833 415.5,389.167 415.5,399.5C 425.833,399.5 436.167,399.5 446.5,399.5C 454.5,408.167 462.833,416.5 471.5,424.5C 471.192,426.924 471.526,429.257 472.5,431.5C 479.203,433.093 484.369,436.76 488,442.5C 490.616,448.96 492.616,455.627 494,462.5C 502.057,462.771 507.89,466.438 511.5,473.5C 511.5,482.833 511.5,492.167 511.5,501.5C 510.599,502.29 509.932,503.29 509.5,504.5C 504.833,500.167 500.167,495.833 495.5,491.5C 495.5,487.5 495.5,483.5 495.5,479.5C 491.5,479.5 487.5,479.5 483.5,479.5C 478.5,474.167 473.5,468.833 468.5,463.5C 471.167,463.5 473.833,463.5 476.5,463.5C 476.15,457.941 474.15,453.108 470.5,449C 464.243,447.683 457.909,447.183 451.5,447.5C 446.5,442.167 441.5,436.833 436.5,431.5C 442.833,431.5 449.167,431.5 455.5,431.5C 455.5,426.167 455.5,420.833 455.5,415.5C 443.5,415.5 431.5,415.5 419.5,415.5C 413.167,408.5 406.5,401.833 399.5,395.5C 399.5,381.5 399.5,367.5 399.5,353.5 Z"/></g>
<g><path style="opacity:0.988" fill="#1ba2d8" d="M 39.5,425.5 C 47.1667,432.5 54.5,439.833 61.5,447.5C 54.4264,447.161 47.4264,447.661 40.5,449C 36.8502,453.108 34.8502,457.941 34.5,463.5C 49.1667,463.5 63.8333,463.5 78.5,463.5C 83.5,468.833 88.5,474.167 93.5,479.5C 77.1667,479.5 60.8333,479.5 44.5,479.5C 36.5,470.833 28.1667,462.5 19.5,454.5C 20.4009,442.373 26.7343,434.707 38.5,431.5C 39.4656,429.604 39.7989,427.604 39.5,425.5 Z"/></g>
<g><path style="opacity:0.983" fill="#4d76e6" d="M 391.5,428.5 C 398.167,434.5 404.5,440.833 410.5,447.5C 404.423,447.196 398.423,447.696 392.5,449C 388.85,453.108 386.85,457.941 386.5,463.5C 396.167,463.5 405.833,463.5 415.5,463.5C 420.5,468.833 425.5,474.167 430.5,479.5C 418.167,479.5 405.833,479.5 393.5,479.5C 386.167,471.5 378.5,463.833 370.5,456.5C 371.71,443.725 378.376,435.391 390.5,431.5C 391.386,430.675 391.719,429.675 391.5,428.5 Z"/></g>
<g><path style="opacity:0.987" fill="#16a6d6" d="M 19.5,454.5 C 28.1667,462.5 36.5,470.833 44.5,479.5C 35.1667,479.5 25.8333,479.5 16.5,479.5C 12.8333,475.167 8.83333,471.167 4.5,467.5C 7.71531,464.232 11.7153,462.732 16.5,463C 17.4371,460.051 18.4371,457.217 19.5,454.5 Z"/></g>
<g><path style="opacity:0.995" fill="#477be5" d="M 370.5,456.5 C 378.5,463.833 386.167,471.5 393.5,479.5C 379.5,479.5 365.5,479.5 351.5,479.5C 346.5,474.167 341.5,468.833 336.5,463.5C 347.172,463.667 357.839,463.5 368.5,463C 369.397,460.913 370.064,458.746 370.5,456.5 Z"/></g>
<g><path style="opacity:1" fill="#229cda" d="M 78.5,463.5 C 92.5,463.5 106.5,463.5 120.5,463.5C 125.5,468.833 130.5,474.167 135.5,479.5C 121.5,479.5 107.5,479.5 93.5,479.5C 88.5,474.167 83.5,468.833 78.5,463.5 Z"/></g>
<g><path style="opacity:1" fill="#2e91dd" d="M 162.5,463.5 C 175.167,463.5 187.833,463.5 200.5,463.5C 205.5,468.833 210.5,474.167 215.5,479.5C 202.833,479.5 190.167,479.5 177.5,479.5C 172.5,474.167 167.5,468.833 162.5,463.5 Z"/></g>
<g><path style="opacity:1" fill="#348cdf" d="M 200.5,463.5 C 216.5,463.5 232.5,463.5 248.5,463.5C 253.5,468.833 258.5,474.167 263.5,479.5C 247.5,479.5 231.5,479.5 215.5,479.5C 210.5,474.167 205.5,468.833 200.5,463.5 Z"/></g>
<g><path style="opacity:1" fill="#3b86e1" d="M 248.5,463.5 C 264.5,463.5 280.5,463.5 296.5,463.5C 301.5,468.833 306.5,474.167 311.5,479.5C 295.5,479.5 279.5,479.5 263.5,479.5C 258.5,474.167 253.5,468.833 248.5,463.5 Z"/></g>
<g><path style="opacity:1" fill="#4180e3" d="M 296.5,463.5 C 309.833,463.5 323.167,463.5 336.5,463.5C 341.5,468.833 346.5,474.167 351.5,479.5C 338.167,479.5 324.833,479.5 311.5,479.5C 306.5,474.167 301.5,468.833 296.5,463.5 Z"/></g>
<g><path style="opacity:1" fill="#5371e8" d="M 415.5,463.5 C 433.167,463.5 450.833,463.5 468.5,463.5C 473.5,468.833 478.5,474.167 483.5,479.5C 465.833,479.5 448.167,479.5 430.5,479.5C 425.5,474.167 420.5,468.833 415.5,463.5 Z"/></g>
<g><path style="opacity:0.989" fill="#11aad5" d="M 4.5,467.5 C 8.83333,471.167 12.8333,475.167 16.5,479.5C 15.5119,484.64 15.1786,489.974 15.5,495.5C 21.5,495.5 27.5,495.5 33.5,495.5C 38.5,500.833 43.5,506.167 48.5,511.5C 35.5,511.5 22.5,511.5 9.5,511.5C 5.16667,509.167 1.83333,505.833 -0.5,501.5C -0.5,492.167 -0.5,482.833 -0.5,473.5C 0.689986,471.131 2.35665,469.131 4.5,467.5 Z"/></g>
<g><path style="opacity:1" fill="#17a5d7" d="M 33.5,495.5 C 49.1667,495.5 64.8333,495.5 80.5,495.5C 85.5,500.833 90.5,506.167 95.5,511.5C 79.8333,511.5 64.1667,511.5 48.5,511.5C 43.5,506.167 38.5,500.833 33.5,495.5 Z"/></g>
<g><path style="opacity:1" fill="#1da0d8" d="M 80.5,495.5 C 90.5,495.5 100.5,495.5 110.5,495.5C 115.5,500.833 120.5,506.167 125.5,511.5C 115.5,511.5 105.5,511.5 95.5,511.5C 90.5,506.167 85.5,500.833 80.5,495.5 Z"/></g>
<g><path style="opacity:1" fill="#229cda" d="M 110.5,495.5 C 124.5,495.5 138.5,495.5 152.5,495.5C 157.5,500.833 162.5,506.167 167.5,511.5C 153.5,511.5 139.5,511.5 125.5,511.5C 120.5,506.167 115.5,500.833 110.5,495.5 Z"/></g>
<g><path style="opacity:1" fill="#2797db" d="M 152.5,495.5 C 163.167,495.5 173.833,495.5 184.5,495.5C 189.5,500.833 194.5,506.167 199.5,511.5C 188.833,511.5 178.167,511.5 167.5,511.5C 162.5,506.167 157.5,500.833 152.5,495.5 Z"/></g>
<g><path style="opacity:1" fill="#2d92dd" d="M 184.5,495.5 C 200.5,495.5 216.5,495.5 232.5,495.5C 237.5,500.833 242.5,506.167 247.5,511.5C 231.5,511.5 215.5,511.5 199.5,511.5C 194.5,506.167 189.5,500.833 184.5,495.5 Z"/></g>
<g><path style="opacity:1" fill="#348cdf" d="M 232.5,495.5 C 248.5,495.5 264.5,495.5 280.5,495.5C 285.5,500.833 290.5,506.167 295.5,511.5C 279.5,511.5 263.5,511.5 247.5,511.5C 242.5,506.167 237.5,500.833 232.5,495.5 Z"/></g>
<g><path style="opacity:1" fill="#3b86e1" d="M 280.5,495.5 C 296.5,495.5 312.5,495.5 328.5,495.5C 333.5,500.833 338.5,506.167 343.5,511.5C 327.5,511.5 311.5,511.5 295.5,511.5C 290.5,506.167 285.5,500.833 280.5,495.5 Z"/></g>
<g><path style="opacity:1" fill="#4180e3" d="M 328.5,495.5 C 341.833,495.5 355.167,495.5 368.5,495.5C 373.5,500.833 378.5,506.167 383.5,511.5C 370.167,511.5 356.833,511.5 343.5,511.5C 338.5,506.167 333.5,500.833 328.5,495.5 Z"/></g>
<g><path style="opacity:1" fill="#477be5" d="M 368.5,495.5 C 382.5,495.5 396.5,495.5 410.5,495.5C 415.5,500.833 420.5,506.167 425.5,511.5C 411.5,511.5 397.5,511.5 383.5,511.5C 378.5,506.167 373.5,500.833 368.5,495.5 Z"/></g>
<g><path style="opacity:1" fill="#4d76e6" d="M 410.5,495.5 C 422.833,495.5 435.167,495.5 447.5,495.5C 452.5,500.833 457.5,506.167 462.5,511.5C 450.167,511.5 437.833,511.5 425.5,511.5C 420.5,506.167 415.5,500.833 410.5,495.5 Z"/></g>
<g><path style="opacity:1" fill="#5371e8" d="M 495.5,491.5 C 500.167,495.833 504.833,500.167 509.5,504.5C 507.425,507.579 504.758,509.912 501.5,511.5C 488.5,511.5 475.5,511.5 462.5,511.5C 457.5,506.167 452.5,500.833 447.5,495.5C 463.5,495.5 479.5,495.5 495.5,495.5C 495.5,494.167 495.5,492.833 495.5,491.5 Z"/></g>
</svg>
